<?xml version="1.0" encoding="iso-8859-1"?>
<!-- Generator: Adobe Illustrator 22.0.1, SVG Export Plug-In . SVG Version: 6.00 Build 0)  -->
<svg version="1.1" id="Layer_1" xmlns="http://www.w3.org/2000/svg" xmlns:xlink="http://www.w3.org/1999/xlink" x="0px" y="0px"
	 viewBox="0 0 2048 2048" style="enable-background:new 0 0 2048 2048;" xml:space="preserve">
<g>
	<path style="fill:#CFD8DD;" d="M931.836,1769.447c57.726,30.071,126.601,30.071,184.327,0c0.306-0.159,0.61-0.318,0.915-0.477
		c391.156-204.206,560.049-643.948,548.076-1066.498c-4.866-171.715-61.628-302.913-224.071-374.329
		c-129.104-56.758-276.3-71.69-416.03-72.144h-2.105c-139.731,0.453-286.926,15.386-416.03,72.144
		c-162.443,71.415-219.205,202.613-224.071,374.329c-11.973,422.551,156.919,862.291,548.076,1066.498
		C931.226,1769.129,931.531,1769.288,931.836,1769.447z"/>
	<path style="fill:#465A65;" d="M1413.009,1230.714c-3.192-8.275-49.445,12.965-102.236,2.43
		c-20.825-4.156-35.792-12.893-65.723-30.367c-55.217-32.235-156.781-115.325-175.261-111.752
		c-16.027,3.099-18.764,16.376-39.623,19.705c-4.423,0.706-7.91,0.706-12.332,0c-20.859-3.329-23.596-16.606-39.623-19.705
		c-18.481-3.574-120.044,79.517-175.261,111.752c-29.931,17.474-44.898,26.211-65.723,30.367
		c-52.79,10.536-99.044-10.703-102.236-2.43c-0.859,2.227,1.473,6.403,18.257,18.22c19.297,13.588,39.283,28.085,61.445,36.643
		c21.83,8.43,45.842,10.664,69.005,7.991c65.142-7.52,126.865-44.171,184.833-72.729c11.467-5.65,22.917-11.338,34.406-16.943
		c4.865-2.374,10.148-5.832,15.437-7.194c2.093-0.539,3.816-0.786,5.81-0.734c1.938,0.059,3.098,0.131,5.442,0.734
		c6.151,1.583,12.315,5.664,17.969,8.431c12.954,6.342,25.873,12.758,38.816,19.123c33.233,16.34,66.424,33.076,100.657,47.229
		c16.579,6.854,33.505,12.989,50.967,17.193c27.339,6.583,57.649,8.816,84.859,0.317c26.407-8.247,49.469-24.295,71.861-40.061
		C1411.537,1237.117,1413.868,1232.941,1413.009,1230.714z"/>
	<polygon style="fill:#465A65;" points="1024,1711.148 1129.29,1420.166 918.71,1420.166 	"/>
	<path style="fill:#465A65;" d="M894.221,869.698c-1.849,4.422-4.223,8.639-7.164,12.566
		c-16.571,22.126-46.356,29.806-73.979,30.898c-33.445,1.32-67.348-4.973-97.451-19.605
		c-52.779-25.651-83.048-75.525-106.344-127.354c-3.916-8.712-7.722-17.533-10.931-26.536c-1.055-2.961,82.477-20.73,88.166-21.748
		c74.568-13.339,159.885,9.468,200.102,78.781C899.327,818.597,903.766,846.876,894.221,869.698z"/>
	<path style="fill:#465A65;" d="M1153.769,869.698c1.849,4.422,4.223,8.639,7.164,12.566c16.571,22.126,46.356,29.806,73.979,30.898
		c33.445,1.32,67.348-4.973,97.451-19.605c52.779-25.651,83.048-75.525,106.344-127.354c3.916-8.712,7.722-17.533,10.931-26.536
		c1.055-2.961-82.477-20.73-88.166-21.748c-74.568-13.339-159.885,9.468-200.102,78.781
		C1148.663,818.597,1144.225,846.876,1153.769,869.698z"/>
	<g>
		<g>
			<path style="fill:#465A65;" d="M955.44,708.054c-5.256,0-10.554-1.666-15.049-5.111
				C807.393,601.042,718.43,579.44,666.947,579.44c-0.37,0-0.736,0.001-1.102,0.003c-48.269,0.291-69.793,19.308-69.988,19.5
				c-9.764,9.586-25.449,9.441-35.035-0.321c-9.586-9.763-9.442-25.449,0.322-35.035c3.467-3.405,35.862-33.279,104.403-33.692
				c38.373-0.2,80.834,8.903,126.296,27.148c55.173,22.143,115.291,57.997,178.684,106.568c10.86,8.321,12.92,23.872,4.598,34.732
				C970.246,704.711,962.884,708.054,955.44,708.054z"/>
		</g>
	</g>
	<g>
		<g>
			<path style="fill:#465A65;" d="M1092.56,708.054c5.256,0,10.554-1.666,15.049-5.111
				c132.997-101.9,221.96-123.503,273.443-123.503c0.37,0,0.736,0.001,1.102,0.003c48.269,0.291,69.793,19.308,69.988,19.5
				c9.764,9.586,25.449,9.441,35.035-0.321c9.586-9.763,9.442-25.449-0.322-35.035c-3.467-3.405-35.862-33.279-104.403-33.692
				c-38.373-0.2-80.834,8.903-126.296,27.148c-55.173,22.143-115.291,57.997-178.684,106.568
				c-10.86,8.321-12.92,23.872-4.598,34.732C1077.754,704.711,1085.116,708.054,1092.56,708.054z"/>
		</g>
	</g>
</g>
</svg>
